<svg viewBox="0 0 32 32" xmlns="http://www.w3.org/2000/svg">
    <g fill="#000" fill-rule="nonzero" >
        <path d="M23.041 0H8.781C3.94 0 0 3.94 0 8.782v14.26c0 4.842 3.94 8.781 8.782 8.781h14.26c4.842 0 8.781-3.94 8.781-8.782V8.782C31.823 3.94 27.883 0 23.041 0zm5.96 23.041A5.965 5.965 0 0 1 23.04 29H8.781a5.965 5.965 0 0 1-5.957-5.959V8.782a5.965 5.965 0 0 1 5.958-5.958h14.26A5.966 5.966 0 0 1 29 8.782v14.26z"/>
        <path d="M15.912 7.712c-4.522 0-8.2 3.678-8.2 8.2 0 4.522 3.678 8.2 8.2 8.2 4.521 0 8.2-3.678 8.2-8.2 0-4.522-3.679-8.2-8.2-8.2zm0 13.576a5.382 5.382 0 0 1-5.377-5.376 5.383 5.383 0 0 1 5.377-5.377 5.383 5.383 0 0 1 5.376 5.377 5.382 5.382 0 0 1-5.376 5.376zM24.456 5.318c-.544 0-1.079.22-1.463.606a2.08 2.08 0 0 0-.608 1.464c0 .545.222 1.079.608 1.465.384.384.919.606 1.463.606a2.09 2.09 0 0 0 1.464-.606c.386-.386.606-.92.606-1.465s-.22-1.08-.606-1.464a2.08 2.08 0 0 0-1.464-.606z"/>
    </g>
</svg>
