<svg viewBox="0 0 32 27" xmlns="http://www.w3.org/2000/svg">
    <path d="M32 3.098a13.11 13.11 0 0 1-3.77 1.034A6.592 6.592 0 0 0 31.117.503a13.234 13.234 0 0 1-4.171 1.594A6.546 6.546 0 0 0 22.154.023a6.565 6.565 0 0 0-6.395 8.059 18.637 18.637 0 0 1-13.53-6.86 6.515 6.515 0 0 0-.887 3.3 6.561 6.561 0 0 0 2.92 5.463 6.565 6.565 0 0 1-2.974-.824v.082a6.571 6.571 0 0 0 5.265 6.437 6.65 6.65 0 0 1-1.73.23 6.3 6.3 0 0 1-1.236-.122 6.568 6.568 0 0 0 6.131 4.56 13.17 13.17 0 0 1-8.152 2.805c-.53 0-1.052-.032-1.566-.09a18.556 18.556 0 0 0 10.062 2.953c12.076 0 18.677-10.002 18.677-18.676l-.022-.85A13.109 13.109 0 0 0 32 3.098z" fill="#000" fill-rule="nonzero" />
</svg>
